<svg xmlns="http://www.w3.org/2000/svg" width="190" height="130" viewBox="0 0 50.271 34.396"><path d="m42.722 271.911-.264-.032.393-.438c.352-.393.398-.46.445-.633.038-.14.043-.213.02-.263-.034-.072-.694-.688-.763-.711a.809.809 0 0 0-.235.042c-.18.052-.234.092-.613.456l-.416.4-.038-.278a5.812 5.812 0 0 1-.04-.344c0-.036.172-.313.383-.614l.384-.547.247-.056c.166-.037.414-.056.745-.058l.496-.004 2.513-2.556a356.751 356.751 0 0 0 2.818-2.884c.186-.2.339-.338.394-.352.156-.04.42 0 .53.081.224.165.306.58.157.794-.04.057-1.317 1.368-2.837 2.915l-2.765 2.811.022.388c.029.49-.048 1.053-.156 1.153-.227.21-1.02.77-1.084.766-.04-.003-.191-.019-.336-.036zm3.295-4.782c-.097-.104-.131-.188-.075-.188.014 0 .086.053.16.118.153.136.182.108.037-.035-.088-.089-.126-.183-.073-.183.013 0 .076.054.14.12.066.066.127.104.138.085.02-.034-.253-.305-.308-.305-.017 0-.038.03-.047.067-.01.036-.035.066-.057.066-.023 0-.06.023-.082.052-.035.043-.02.073.098.198.077.081.147.14.155.13.009-.008-.03-.065-.086-.125zm.456-.207c.072-.075.066-.092-.078-.226-.144-.136-.166-.142-.238-.068-.068.071-.027.133.044.066.07-.065.107-.032.063.055-.027.052-.02.081.038.145.086.094.104.097.171.028zm.052-.262c-.066-.07-.099-.133-.087-.165.028-.075.062-.065.166.047.109.119.143.123.22.03.057-.07.055-.073-.08-.216-.13-.137-.14-.142-.196-.088-.05.046-.071.048-.122.015-.069-.044-.084-.009-.024.054.03.03.023.052-.03.097l-.07.058.149.157c.082.087.156.15.165.14.008-.008-.032-.067-.09-.129zm.338-.347c-.151-.16-.1-.215.068-.071.163.138.206.128.071-.018-.167-.18-.216-.199-.293-.113l-.065.072.156.143c.19.174.23.165.063-.013zm-.325-.172a.035.035 0 0 0-.05-.012.038.038 0 0 0-.01.051c.01.017.032.023.048.012a.038.038 0 0 0 .012-.05z" style="fill:#fa8750;stroke:none;stroke-width:.03259857;fill-opacity:1;opacity:1" transform="translate(0 -262.604)"/><path d="M1.797 263.017c-.029.32-.16.603-.383.826-.234.234-.479.334-.87.355l-.342.02v10.541l.437.431a10.704 10.704 0 0 0 2.894 2.038c.615.302 1.882.775 2.074.775.037 0 .087-.086.116-.2a1.37 1.37 0 0 1 1.004-.982c.8-.192 1.602.452 1.602 1.285v.228h.4c1.861 0 4.27-.866 5.978-2.148 2.874-2.159 4.389-5.315 4.285-8.932-.032-1.132-.155-1.887-.485-2.986-.115-.382-.119-.388-.237-.343a1.576 1.576 0 0 1-.412.045 1.32 1.32 0 0 1-1.286-1.053l-.033-.175H1.821Z" style="fill:#fa8750;stroke:none;stroke-width:.04724703;fill-opacity:1;opacity:1" transform="translate(0 -262.604)"/><path d="m28.847 285.935-.013 1.639-.012 1.64-1.18-1.128-1.18-1.128-.628.658-.627.657.768.732c.422.402.906.864 1.075 1.027l.307.295H24.29l.009.024a.335.335 0 0 1 .002.141.539.539 0 0 0-.005.031l-.003.032-.002.01h.02v1.795h3.28l-.663.674c-.365.37-.88.897-1.143 1.17l-.48.498.64.636.641.636 1.153-1.18 1.152-1.182.002 1.642v1.642h1.795l.012-1.642.013-1.642 1.181 1.147 1.181 1.146.632-.65.632-.65-.986-.96a37.106 37.106 0 0 0-1.215-1.145l-.227-.186 1.669-.012 1.668-.013.013-.885.013-.887H31.936l-.187-.2-.187-.201.203.189.203.189 1.046-1.08a51.833 51.833 0 0 0 1.14-1.198l.092-.118-.63-.597c-.346-.329-.647-.598-.67-.598-.021 0-.53.51-1.129 1.134-.6.624-1.11 1.14-1.133 1.15-.026.009-.043-.657-.043-1.618v-1.634h-.897zm.884 4.253c.299.006.605.102.83.287.777.641.565 1.9-.383 2.262-1.188.455-2.253-.873-1.568-1.953.076-.12.155-.22.176-.22.02 0 .095-.053.167-.12.19-.177.48-.261.778-.256zm2.04 2.314c.013 0-.08.107-.209.236-.128.13-.243.237-.256.237-.013 0 .08-.107.209-.237.128-.13.243-.236.256-.236z" style="opacity:.80699983;fill:#fa8750;fill-opacity:1;stroke:none;stroke-width:.04724703" transform="translate(0 -262.604)"/></svg>