<svg xmlns="http://www.w3.org/2000/svg" width="100" height="200" viewBox="0 0 26.458 52.917"><path d="M13.869 293.612c-1.474-.241-3.033-.896-4.216-1.771-1.23-.91-3.27-3.24-4.538-5.18-1.176-1.802-1.843-3.269-2.322-5.108-.235-.901-.258-1.144-.256-2.646.002-1.421.033-1.765.218-2.448.4-1.476 1.05-2.65 2.028-3.669.57-.594.57-.594.767-.41.303.284.72.405 1.165.339.23-.034.402-.022.402.029 0 .197 1.271 1.445 1.82 1.786 1.15.713 2.046.971 3.377.971 1.117 0 1.783-.162 2.894-.707 1.473-.723 2.741-2.071 3.526-3.749 1.212-2.588 1.228-5.777.048-9.33-.985-2.962-3.173-6.3-5.19-7.913-1.34-1.073-2.452-1.531-6.757-2.788-4.385-1.28-5.213-1.68-5.73-2.774-.123-.26-.224-.59-.224-.732l-.001-.26h18.946l.272.34c.278.349.746.605 1.104.605.346 0 .854-.3 1.066-.63l.204-.318.992.025.992.025v33.915l-.283.059c-.704.145-1.086.614-1.087 1.336 0 .342.057.51.255.745.282.335.736.561 1.126.561h.254l-.061.931c-.281 4.285-3.292 7.778-7.471 8.667-.944.2-2.43.245-3.32.1zm9.652-20.107c.045-.073.018-.091-.082-.053-.174.067-.399-.158-.307-.307.035-.056.134-.09.221-.075.135.022.162-.084.186-.726.016-.413.075-.807.132-.876.148-.178.096-.19-.538-.118-.532.06-.54.065-.141.078l.425.014-.027.543c-.038.775-.088.94-.303.996-.236.062-.252.4-.025.532.221.13.376.126.46-.008zm-1.163-.686c.24-.182.302-.705.13-1.116-.106-.254-.115-.356-.033-.39.061-.025.011-.048-.111-.052-.179-.006-.208.025-.149.157.04.091.092.365.113.608.038.426.03.442-.23.472-.194.022-.276.09-.298.243-.024.17.015.212.19.21a.774.774 0 0 0 .388-.132zm-6.207-20.764c.045-.073.017-.091-.082-.053-.175.067-.4-.158-.307-.307.034-.056.133-.09.22-.075.135.022.163-.084.187-.726.015-.413.074-.808.131-.876.148-.179.097-.19-.537-.118-.533.06-.541.065-.142.078l.425.014-.027.543c-.038.775-.088.94-.302.996-.237.062-.252.4-.025.532.22.129.376.126.459-.008zm-1.164-.686c.241-.183.302-.705.13-1.116-.106-.254-.114-.356-.032-.39.06-.025.01-.048-.112-.053-.178-.006-.208.026-.149.158.041.091.092.364.114.607.037.426.03.443-.23.473-.194.022-.276.089-.298.243-.024.169.015.212.189.21a.774.774 0 0 0 .388-.132z" style="fill:#ff8750;stroke:none;stroke-width:.09449405;fill-opacity:1" transform="translate(0 -244.083)"/></svg>
