<svg xmlns="http://www.w3.org/2000/svg" width="500" height="500" viewBox="0 0 132.292 132.292"><g transform="translate(0 -164.708)"><path d="m79.576 263.974-6.613-3.497-.486-7.464-.278-7.475 6.221-4.153 6.335-3.978 6.707 3.31 6.613 3.498.486 7.464.278 7.475-6.221 4.153-6.335 3.978zm-11.792 23.07-6.612-3.497-.486-7.464-.278-7.475 6.22-4.153 6.335-3.978 6.708 3.311 6.612 3.497.486 7.464.278 7.475-6.221 4.153-6.334 3.978zm21.291-90.958-6.612-3.497-.487-7.464-.277-7.475 6.22-4.153 6.335-3.978 6.707 3.311 6.613 3.497.486 7.464.278 7.475-6.221 4.153-6.335 3.978zM63.2 197.41l-6.613-3.497-.486-7.464-.278-7.475 6.221-4.153 6.335-3.978 6.707 3.31 6.613 3.497.486 7.465.278 7.474-6.221 4.154-6.335 3.978zm-21.291 90.958-6.612-3.497-.487-7.464-.277-7.475 6.22-4.153 6.335-3.979 6.707 3.311 6.613 3.497.486 7.465.278 7.474-6.221 4.154-6.335 3.978zm-4.585-89.635-6.612-3.497-.486-7.464-.278-7.475 6.221-4.153 6.335-3.978 6.707 3.311 6.612 3.497.487 7.464.277 7.475-6.22 4.153-6.335 3.978zm-23.583 46.14-6.612-3.496-.486-7.464-.278-7.475 6.221-4.153 6.335-3.978 6.707 3.31 6.612 3.497.487 7.465.277 7.475-6.22 4.153-6.335 3.978zm2.293 44.818-6.613-3.497-.486-7.464-.278-7.475 6.221-4.153 6.335-3.978 6.707 3.31 6.613 3.498.486 7.464.278 7.475-6.221 4.153-6.335 3.978zm89.417-27.04-6.612-3.497-.487-7.465-.277-7.474 6.22-4.154 6.335-3.978 6.707 3.311 6.613 3.497.486 7.464.278 7.475-6.221 4.153-6.335 3.978zm-77.626 3.97-6.612-3.497-.486-7.464-.278-7.475 6.22-4.153 6.335-3.978 6.708 3.31 6.612 3.497.486 7.465.278 7.474-6.221 4.154-6.334 3.978zm65.834 19.1-6.612-3.497-.486-7.464-.278-7.475 6.221-4.153 6.335-3.978 6.707 3.31 6.612 3.497.487 7.465.277 7.475-6.22 4.153-6.335 3.978zm9.5-67.888-6.613-3.497-.486-7.464-.278-7.475 6.221-4.153 6.335-3.978 6.707 3.311 6.613 3.497.486 7.464.278 7.475-6.221 4.153-6.335 3.978zm-77.626 3.97-6.612-3.496-.487-7.465-.277-7.474 6.22-4.154 6.335-3.978 6.707 3.311 6.613 3.497.486 7.464.278 7.475-6.221 4.153-6.335 3.978z" style="fill:#ff8750;fill-opacity:.90196078;fill-rule:evenodd;stroke:#212121;stroke-width:.52916664;stroke-miterlimit:4;stroke-dasharray:none;stroke-opacity:1"/><path d="M107.425 251.745a9183.75 9183.75 0 0 0-3.785-5.735c-.067-.099.019-.132 1.046-.406.615-.165 1.148-.31 1.184-.324.036-.013 1.221 1.734 2.633 3.881 2.169 3.298 2.59 3.905 2.706 3.905.116 0 .507-.577 2.589-3.824a369.616 369.616 0 0 1 2.518-3.9c.051-.058.324-.003 1.238.247l1.173.322-.211.306c-.116.169-1.804 2.725-3.751 5.682-1.947 2.957-3.56 5.398-3.584 5.426-.024.027-1.714-2.484-3.756-5.58z" style="fill:#37c871;stroke:#212121;stroke-width:.3346197;stroke-linecap:round;stroke-linejoin:round;stroke-miterlimit:4;stroke-dasharray:none;stroke-opacity:1"/><path d="M108.955 248.901c-1.235-1.879-2.236-3.427-2.223-3.44.012-.014.557.123 1.21.303l1.19.328 1.437 2.394a162.41 162.41 0 0 1 1.46 2.459c.014.036-.167.36-.402.719l-.426.654z" style="fill:#53676c;stroke:#212121;stroke-width:.3346197;stroke-linecap:round;stroke-linejoin:round;stroke-miterlimit:4;stroke-dasharray:none;stroke-opacity:1"/><path d="M112.11 256.9c0-.04 6.815-10.382 6.989-10.606l.13-.169.538.432.538.43-.371.537c-.204.294-1.511 2.191-2.905 4.215l-2.534 3.68-1.193.756c-.656.416-1.192.742-1.192.725z" style="fill:#53676c;fill-opacity:.9990317;stroke:#212121;stroke-width:.3346197;stroke-linecap:round;stroke-linejoin:round;stroke-miterlimit:4;stroke-dasharray:none;stroke-opacity:1"/><path d="M33.498 212.173a2.485 10.484 39.31 0 0 5.058-9.94 2.485 10.484 39.31 0 0-8.37 6.144 2.485 10.484 39.31 0 0-5.058 9.94 2.485 10.484 39.31 0 0 8.37-6.144zm-3.648.197a10.484 2.485 50.69 0 1-5.058-9.94 10.484 2.485 50.69 0 1 8.369 6.145 10.484 2.485 50.69 0 1 5.058 9.94 10.484 2.485 50.69 0 1-8.37-6.145zm1.513.915a9.601 2.714.489 0 1-9.585-2.794 9.601 2.714.489 0 1 9.618-2.634 9.601 2.714.489 0 1 9.584 2.794 9.601 2.714.489 0 1-9.617 2.634z" style="fill:none;fill-rule:evenodd;stroke:#0cf;stroke-width:.54151177;stroke-miterlimit:4;stroke-dasharray:none;stroke-opacity:1"/><ellipse cx="31.661" cy="210.586" rx="1.251" ry="1.465" style="fill:#0cf;fill-rule:evenodd;stroke-width:.12925781"/><path d="M68.402 191.888c-2.602-.464-4.663-2.332-5.482-4.967a7.387 7.387 0 0 1-.353-2.354 7.718 7.718 0 0 1 1.202-4.184 8.121 8.121 0 0 1 1.568-1.765c.75-.598 1.857-1.114 2.841-1.325.635-.136 1.943-.136 2.542 0 1.765.4 3.219 1.404 4.333 2.991.209.299.449.684.533.856.409.84.002 1.95-.84 2.293-.52.212-1.205.083-1.597-.3a3.405 3.405 0 0 1-.344-.489c-.742-1.231-1.822-1.876-3.141-1.876-1.13 0-2.122.498-2.827 1.418-.573.748-.824 1.516-.824 2.52 0 .973.244 1.732.797 2.482.473.641 1.264 1.181 2.004 1.368.48.122 1.284.111 1.77-.023 1.103-.303 2.137-1.286 2.509-2.384.222-.655.702-1.05 1.336-1.097.837-.062 1.524.584 1.585 1.49.03.451-.03.657-.364 1.269-.515.94-.844 1.422-1.324 1.942-.979 1.058-2.147 1.754-3.492 2.082-.497.12-1.884.151-2.432.053z" style="fill:#333;stroke:none;stroke-width:.05344681"/><path d="M71.753 277.68c0-3.57-.01-4.647-.042-4.674-.032-.026-.55-.034-2.115-.034h-2.072v-1.553h11.045v1.553h-2.073c-1.565 0-2.083.008-2.115.034-.032.027-.042 1.104-.042 4.674v4.64h-2.586z" style="fill:#3771c8;fill-opacity:1;stroke:none;stroke-width:.03170603"/><path d="M112.12 210.339c.214.422.622.741 1.084.846a1.64 1.64 0 0 0 1.343-.296c.252-.194.444-.464.545-.766.101-.301.11-.633.027-.94a1.626 1.626 0 0 0-.502-.794 1.626 1.626 0 0 0-.86-.381m1.637-2.33a1.639 1.639 0 0 0-1.084-.848 1.64 1.64 0 0 0-1.343.296 1.626 1.626 0 0 0-.545.766c-.101.302-.11.633-.026.94.084.307.26.587.501.795.241.208.544.342.86.38m-4.035-.228a2.69 2.69 0 0 1-1.056 1.498 2.69 2.69 0 0 1-1.773.461 2.7 2.7 0 0 1-1.884-1.066 2.7 2.7 0 0 1-.47-2.114m5.183-6.207v7.428m-5.462-7.707h8.516" style="opacity:1;fill:none;fill-opacity:1;fill-rule:evenodd;stroke:#ffd42a;stroke-width:1.79390705;stroke-linecap:round;stroke-linejoin:round;stroke-miterlimit:4;stroke-dasharray:none;stroke-dashoffset:0;stroke-opacity:1"/><path d="m27.422 233.546-3.395.494-2.126-2.693 1.269-3.188 3.395-.494 2.126 2.693z" style="fill:none;fill-rule:evenodd;stroke:#00d455;stroke-width:.22868977;stroke-miterlimit:4;stroke-dasharray:none;stroke-opacity:1" transform="matrix(1.1234 0 0 1.19151 6.393 -19.278)"/><text xml:space="preserve" x="32.426" y="259.936" style="font-style:normal;font-weight:400;font-size:5.29935455px;line-height:1.25;font-family:sans-serif;letter-spacing:0;word-spacing:0;fill:#00d455;fill-opacity:1;stroke:none;stroke-width:.26458332;stroke-miterlimit:4;stroke-dasharray:none" transform="scale(1.01171 .98843)"><tspan x="32.426" y="259.936" style="fill:#00d455;fill-opacity:1;stroke-width:.26458332;stroke-miterlimit:4;stroke-dasharray:none">js </tspan></text><path fill="none" d="M16.816 284.986a.956.956 0 0 1-.282-.297c-.084-.164-.085-.189-.095-6.12l-.011-5.957.107-.219a.81.81 0 0 1 .275-.33l.167-.11H29.11l.175.115c.12.08.205.181.274.329l.099.213v5.9c0 4.302-.012 5.937-.046 6.039a.875.875 0 0 1-.406.49c-.158.08-.25.08-6.176.08h-6.016zm6.494-1.484c.558-.265.814-.886.611-1.482-.065-.19-.318-.498-.485-.587-.077-.042-.081-.124-.115-2.066-.02-1.112-.027-2.03-.016-2.04.01-.01.798.255 1.751.59l1.733.609.01.226c.036.78.925 1.181 1.522.688.528-.435.418-1.25-.212-1.567-.142-.071-.586-.09-.703-.03-.093.048-4.257-1.473-4.268-1.56-.036-.28-.074-.387-.185-.513-.186-.212-.324-.27-.624-.26l-.258.008-1.35-1.115c-.742-.614-1.383-1.116-1.423-1.116-.084 0-.168.133-.135.213.013.03.443.399.955.82.513.42 1.152.946 1.42 1.167l.486.402.199-.05c.17-.045.219-.042.34.015.175.083.23.188.243.474l.011.225.617.23c.338.126 1.358.5 2.264.832 1.645.601 1.649.602 1.796.54.202-.084.313-.077.52.033.565.299.354 1.138-.287 1.138a.623.623 0 0 1-.522-.273c-.054-.084-.074-.194-.074-.419 0-.228-.015-.314-.061-.34-.163-.095-3.95-1.387-4.003-1.366a.162.162 0 0 0-.083.092c-.012.037-.004.964.018 2.06s.04 2.108.04 2.249c.001.246.006.258.135.323.324.164.5.447.497.803-.005.717-.86 1.112-1.394.643a.863.863 0 0 1 .071-1.376l.2-.144-.021-.5c-.012-.274-.041-1.32-.065-2.326-.048-2.055-.036-1.982-.326-1.895a.446.446 0 0 1-.305.005c-.202-.067-.277-.174-.306-.44l-.025-.235-1.397-1.16c-.822-.682-1.433-1.16-1.484-1.162-.104-.003-.198.096-.168.176.012.031.632.56 1.376 1.174l1.355 1.118.025.193c.05.375.364.664.72.664.162 0 .164.002.184.174.012.096.04 1.043.063 2.104l.042 1.93-.181.173a1.147 1.147 0 0 0-.38.754c-.045.49.212.947.654 1.168.291.145.702.148.998.008z" style="fill:#212120;stroke:none;stroke-width:.04108437;fill-opacity:0"/><path d="M17.046 284.896a.81.81 0 0 1-.486-.276c-.228-.258-.21.29-.21-6.318 0-6.632-.019-6.063.219-6.328a.93.93 0 0 1 .244-.193c.065-.03.119-.062.119-.072 0-.01.31.295.69.68l1.414 1.43c.399.403.737.755.752.781a.985.985 0 0 1 .03.27.75.75 0 0 0 .085.387c.14.285.446.486.758.497l.158.006.017.523c.01.288.038 1.567.063 2.843l.045 2.32-.067.045a1.623 1.623 0 0 0-.43.512 1.319 1.319 0 0 0 .624 1.78c.186.088.26.107.475.119.424.024.75-.103 1.037-.403a1.3 1.3 0 0 0 0-1.824 1.464 1.464 0 0 0-.263-.223l-.101-.055v-.349c0-.192-.014-1.412-.033-2.71a101.168 101.168 0 0 1-.02-2.376c.009-.008.85.348 1.871.79l1.857.802.002.294c.002.354.064.54.27.81.48.63 1.409.713 1.983.175.292-.273.434-.6.435-1 .001-.395-.128-.698-.412-.969a1.346 1.346 0 0 0-1.53-.246l-.164.083-2.232-1.008-2.233-1.008-.009-.22a.736.736 0 0 0-.105-.4c-.17-.32-.424-.468-.804-.469h-.237l-.933-.952-.933-.95 4.83-.009c3.054-.005 4.9.003 5.018.02a.827.827 0 0 1 .546.317c.196.258.184-.19.175 6.34l-.008 5.91-.08.165a.86.86 0 0 1-.426.413l-.133.061-5.868.004c-3.228.002-5.928-.006-6.001-.019z" style="fill:#212121;fill-opacity:1;stroke:none;stroke-width:.02905104"/></g></svg>