<svg xmlns="http://www.w3.org/2000/svg" width="250" height="450" viewBox="0 0 66.146 119.063"><path fill="none" d="M22.448 283.758c-2.98-7.342-2.196-15.954 2.059-22.6l.6-.938 4.591 1.366 4.592 1.367.008.63c.016 1.391-.26 3.86-.621 5.553-1.093 5.124-4.074 10.105-8.066 13.472-.638.539-1.48 1.198-1.87 1.466l-.81.554c-.056.038-.273-.353-.483-.87z" style="fill:#ffbe40;fill-opacity:0;stroke:#212121;stroke-width:.79374999;stroke-miterlimit:4;stroke-dasharray:none;stroke-opacity:1" transform="translate(0 -177.937)"/><path d="M22.353 283.537c-2.97-7.372-1.997-16.25 2.508-22.902 1.279-1.887 1.551-2.163 2.128-2.153 1.812.03 4.683.85 6.279 1.797l.858.509.089 1.127c.107 1.347.067 3.22-.103 4.888-.095.926-.33 1.91-.984 4.1-.785 2.631-.931 3.012-1.686 4.4-1.445 2.659-2.836 4.509-4.794 6.377-1.105 1.054-3.58 2.96-3.77 2.904-.064-.02-.3-.49-.525-1.047z" style="fill:#ffbe40;fill-opacity:1;stroke:#212121;stroke-width:.79374999;stroke-miterlimit:4;stroke-dasharray:none;stroke-opacity:1" transform="translate(0 -177.937)"/><path d="M23.758 258.805c.579-.145 2.652-.452 2.679-.396.012.026-.17.299-.407.606l-.428.558-1.12-.334-1.121-.334zM34.217 261.412c-.037-.41-.047-.738-.023-.731.063.019 1.884 1.754 2.03 1.934.088.108-.17.064-.91-.154l-1.031-.306z" style="fill:#4d4d4d;stroke:#212121;stroke-width:.26458332;stroke-miterlimit:4;stroke-dasharray:none;stroke-opacity:1" transform="translate(0 -177.937)"/><path d="M9.545 267.323c.057-.175 1.276-2.256 2.71-4.625l2.605-4.308 2.665-1.689c4.125-2.614 3.807-2.595 4.008-.238.094 1.107.072 2.14-.048 2.296-.12.156-2.063 1.584-4.317 3.173-2.255 1.59-4.875 3.537-5.823 4.326-1.784 1.487-1.975 1.6-1.8 1.065zM42.39 275.655c-.367-1.234-1.55-4.475-2.63-7.203l-1.963-4.96 1.23-1.584c.676-.871 1.327-1.579 1.446-1.573.119.006.895 1.49 1.725 3.298l1.51 3.286-.182 5.292c-.1 2.91-.247 5.38-.325 5.49-.079.108-.443-.813-.81-2.046z" style="fill:#212121;fill-opacity:1;stroke:#212121;stroke-width:.79374999;stroke-miterlimit:4;stroke-dasharray:none;stroke-opacity:1" transform="translate(0 -177.937)"/><path d="M22.296 256.289c-.648-8.412-.487-16.703.48-24.756 1.389-11.551 3.167-17.616 7.133-24.328 4.566-7.725 12.264-14.81 20.018-18.425l1.6-.745 1.324 2.305c4.347 7.566 6.524 16.299 6.256 25.087-.131 4.287-.63 7.252-1.994 11.835-1.044 3.507-1.399 4.448-2.963 7.854-3.962 8.625-7.713 15.214-12.45 21.869-1.871 2.629-4.249 5.735-4.364 5.7-.038-.01-.5-.451-1.024-.979-1.711-1.719-3.1-2.515-5.776-3.31-2.683-.795-3.713-.86-6.361-.398-.9.157-1.657.28-1.682.272-.025-.007-.114-.9-.197-1.981zm14.294-21.514c.39-.14.488-.364 1.071-2.441l.643-2.288 1.167.347c1.124.334 1.172.33 1.302-.106l.135-.453-3.332-.991c-2.945-.876-3.356-.96-3.538-.723-.32.417.045.663 1.73 1.168l1.558.467-.215 1.148a25.431 25.431 0 0 1-.503 2.117c-.24.804-.343.954-.605.873-.613-.189-.764-.581-.527-1.376.274-.922-.1-1.29-.66-.648-.507.582-.58.982-.307 1.67.391.989 1.288 1.521 2.081 1.236zm5.858 1.438c.728-.054.893-.75.366-1.55-.382-.58-.908-.985-2.118-1.633-.31-.166-.433-.365-.367-.59.135-.451.619-.468 1.113-.037.323.282.447.308.644.137.133-.117.262-.272.285-.345.073-.228-1.058-1.047-1.42-1.029-.723.036-1.378.502-1.558 1.107-.219.736.136 1.209 1.393 1.858.494.255 1.037.648 1.208.873.302.4.295.403-.292.112-1.987-.985-2.066-1.007-2.19-.59-.064.215-.023.45.09.522 1.55.977 2.137 1.217 2.846 1.165zm3.52-21.001c1.017-.188 2.489-1.052 3.134-1.84.676-.827 1.154-2.579 1.01-3.704-.142-1.11-.782-2.353-1.605-3.12-.836-.778-3.006-1.423-4.132-1.229-2.483.43-4.35 2.729-4.252 5.238.053 1.358 1.094 3.115 2.371 4 .675.468 2.56.823 3.473.655z" style="fill:#212121;fill-opacity:1;stroke:#212121;stroke-width:.1889125;stroke-miterlimit:4;stroke-dasharray:none;stroke-opacity:1" transform="translate(0 -177.937)"/><path d="M42.692 213.73c-1.538-1.16-2.078-2.79-1.533-4.623.857-2.879 3.904-3.948 6.469-2.27.842.552 1.721 2.122 1.751 3.127.035 1.195-.673 2.874-1.506 3.571-1.386 1.16-3.781 1.25-5.181.195z" style="fill:#fff;stroke:none;stroke-width:.1889881" transform="translate(0 -177.937)"/><path d="m36.844 268.572-1.603 3.074.534 5.479 1.738-4.544z" style="opacity:1;fill:#ffbe40;fill-opacity:1;fill-rule:evenodd;stroke:#212121;stroke-width:.26458332;stroke-linecap:round;stroke-linejoin:round;stroke-miterlimit:4;stroke-dasharray:none;stroke-dashoffset:0;stroke-opacity:1" transform="translate(0 -177.937)"/><path d="m17.891 272.78-2.632 4.116.878 7.338 2.851-6.085z" style="opacity:1;fill:#ffbe40;fill-opacity:1;fill-rule:evenodd;stroke:#212121;stroke-width:.3922773;stroke-linecap:round;stroke-linejoin:round;stroke-miterlimit:4;stroke-dasharray:none;stroke-dashoffset:0;stroke-opacity:1" transform="translate(0 -177.937)"/></svg>