<svg xmlns="http://www.w3.org/2000/svg" width="396.85" height="400" viewBox="0 0 105 105.833"><g transform="translate(0 -191.167)"><path d="M8.74 233.192c-3.083 1.165-5.475 3.496-6.419 7.213s-.44 8.82 1.668 12.978c2.108 4.157 5.822 7.37 10.353 9.45 4.532 2.078 9.882 3.023 16.082 3.968 6.199.945 13.248 1.89 17.497 3.528 4.248 1.638 5.696 3.969 9.787 6.173 4.091 2.205 10.826 4.284 17.245 4.568 6.42.283 12.526-1.229 17.592-8.127 5.067-6.898 9.095-19.183 10.039-27.687.944-8.505-1.196-13.23-5.79-18.647-4.595-5.418-11.644-11.529-19.732-15.78-8.088-4.253-17.214-6.647-23.76-6.206-6.546.44-10.51 3.717-14.287 7.496-3.777 3.78-7.364 8.064-10.605 11.466-3.242 3.402-6.137 5.922-9.473 7.182-3.336 1.26-7.112 1.26-10.196 2.425z" style="fill:#ff8750;fill-opacity:1;stroke:none;stroke-width:.26446706;stroke-linecap:round;stroke-linejoin:round;stroke-miterlimit:4;stroke-dasharray:none;stroke-opacity:1"/><path d="M34.544 254.279a1.33 1.33 0 0 1-.4-.371c-.143-.218-.156-1.432-.156-14.55v-14.312l-.015-.57c.135-.16 1.463-.038 1.463-.038.55-.148 45.888-.188 46.32-.039.96.018.635.572.758.755v0l-.002 14.232c-.003 13.232-.014 14.249-.163 14.49-.363.586 1.479.544-24.16.54-20.004-.003-23.434-.023-23.645-.137z" style="fill:#fff;fill-opacity:1;stroke:#212121;stroke-width:.66116762;stroke-linecap:round;stroke-linejoin:round;stroke-miterlimit:4;stroke-dasharray:none;stroke-opacity:1"/><path d="M53.63 258.47v-4.3H62.031v8.599H53.629z" style="fill:#212121;fill-opacity:1;stroke:none;stroke-width:.08329929"/><path d="M45.306 263.31c-.147-.04-.313-.3-.239-.375.019-.019 1.953-.034 4.298-.034h4.264v-.662h8.391l.03.308.029.307 4.272.024c4.16.024 4.272.03 4.272.209 0 .133-.084.198-.307.238-.353.063-24.772.048-25.01-.015z" style="fill:#333;stroke:none;stroke-width:.09445253"/><rect width="18.599" height="1.087" x="36.785" y="226.749" ry=".331" style="fill:#212121;fill-opacity:1;fill-rule:evenodd;stroke-width:.13223353"/><rect width="18.599" height="1.087" x="36.738" y="229.088" ry=".331" style="fill:#212121;fill-opacity:1;fill-rule:evenodd;stroke-width:.13223353"/><rect width="31.297" height="1.087" x="36.653" y="231.545" ry=".331" style="fill:#212121;fill-opacity:1;fill-rule:evenodd;stroke-width:.17153397"/><rect width="18.599" height="1.087" x="39.995" y="234.616" ry=".331" style="fill:#212121;fill-opacity:1;fill-rule:evenodd;stroke-width:.13223353"/><rect width="18.599" height="1.087" x="37.21" y="237.687" ry=".331" style="fill:#212121;fill-opacity:1;fill-rule:evenodd;stroke-width:.13223353"/><rect width="10.721" height="1.087" x="36.914" y="240.869" ry=".331" style="fill:#212121;fill-opacity:1;fill-rule:evenodd;stroke-width:.10039769"/><rect width="5.714" height="1.087" x="37.047" y="243.693" ry=".331" style="fill:#212121;fill-opacity:1;fill-rule:evenodd;stroke-width:.0732973"/><rect width="36.824" height="1.087" x="37.047" y="245.88" ry=".331" style="fill:#212121;fill-opacity:1;fill-rule:evenodd;stroke-width:.18606435"/><rect width="18.599" height="1.087" x="43.122" y="248.42" ry=".331" style="fill:#212121;fill-opacity:1;fill-rule:evenodd;stroke-width:.13223353"/><rect width="18.599" height="1.087" x="57.542" y="251.092" ry=".331" style="fill:#212121;fill-opacity:1;fill-rule:evenodd;stroke-width:.13223353"/><path d="M69.852 240.458a146.063 146.063 0 0 1-1.526-1.87c-.006-.016.54-.946 1.212-2.068l1.222-2.039.59.002c.326.001.647.012.714.025l.123.023-1.18 2.019c-.65 1.11-1.178 2.046-1.175 2.08.002.033.663.86 1.469 1.839.805.978 1.471 1.79 1.48 1.804.009.014-.306.026-.7.026h-.714zM78.675 240.614c.833-1.013 1.52-1.854 1.526-1.87.006-.016-.54-.947-1.212-2.068l-1.222-2.04-.591.003a7.601 7.601 0 0 0-.713.025l-.123.023 1.18 2.018c.649 1.11 1.178 2.047 1.175 2.08-.002.033-.663.861-1.469 1.84-.805.978-1.471 1.79-1.48 1.804-.009.014.306.025.699.025h.715z" style="fill:#ff8750;fill-opacity:1;stroke:none;stroke-width:.03339401;stroke-opacity:1"/><path d="M72.874 243.846c-.243-.03-.408-.059-.409-.074 0-.014.735-2.434 1.634-5.377l1.634-5.352.367.042c.202.024.416.05.475.06l.108.018-1.641 5.369c-1.632 5.34-1.64 5.368-1.7 5.365a14.22 14.22 0 0 1-.468-.051z" style="fill:#212121;fill-opacity:1;stroke:none;stroke-width:.02361314"/><path d="M76.853 263.225c.023-.532.201-1.057.508-1.493.307-.436.74-.78 1.234-.982a2.847 2.847 0 0 1 2.568.238 2.847 2.847 0 0 1 1.283 2.237" style="fill:#212121;fill-opacity:1;stroke:none;stroke-width:.10868667px;stroke-linecap:butt;stroke-linejoin:miter;stroke-opacity:1"/><text xml:space="preserve" x="79.646" y="262.537" style="font-style:normal;font-weight:400;font-size:.70524549px;line-height:.88155687px;font-family:sans-serif;text-align:center;letter-spacing:0;word-spacing:0;text-anchor:middle;fill:none;fill-opacity:1;stroke:#fff;stroke-width:.02644671;stroke-linecap:round;stroke-linejoin:round;stroke-miterlimit:4;stroke-dasharray:.21157364,.05289342,.02644671,.05289342;stroke-dashoffset:0;stroke-opacity:1" transform="scale(.99955 1.00045)"><tspan x="79.646" y="262.537" style="line-height:.88155687px;text-align:center;text-anchor:middle;fill:none;fill-opacity:1;stroke:#fff;stroke-width:.02644671;stroke-linecap:round;stroke-linejoin:round;stroke-miterlimit:4;stroke-dasharray:.21157364,.05289342,.02644671,.05289342;stroke-dashoffset:0;stroke-opacity:1">martin</tspan></text><path d="M79.404 260.569a.264.264 0 0 1 .137-.244.263.263 0 0 1 .355.106c.022.04.032.087.03.133" style="fill:#e6e6e6;fill-opacity:1;stroke:#212121;stroke-width:.09103905px;stroke-linecap:butt;stroke-linejoin:miter;stroke-opacity:1"/></g></svg>