<svg xmlns="http://www.w3.org/2000/svg" width="200" height="200" viewBox="0 0 52.917 52.917"><path d="m9.775 284.577-.07-33.415 4.936 3.287-.07 25.276z" style="fill:#ff8750;fill-opacity:1;stroke:#212121;stroke-width:.13229168;stroke-linecap:round;stroke-linejoin:round;stroke-miterlimit:4;stroke-dasharray:none;stroke-dashoffset:0;stroke-opacity:1" transform="matrix(1.1375 0 0 1.29514 -4.819 -320.225)"/><path d="m46.32 284.588.07-33.415-4.936 3.287.07 25.276z" style="fill:#ffbe40;fill-opacity:1;stroke:#212121;stroke-width:.13229168;stroke-linecap:round;stroke-linejoin:round;stroke-miterlimit:4;stroke-dasharray:none;stroke-dashoffset:0;stroke-opacity:1" transform="matrix(1.1375 0 0 1.29514 -4.819 -320.225)"/><path d="m14.641 254.449.082 5.561 13.162 3.552.162-5.14z" style="fill:#ff5a5a;fill-opacity:1;stroke:#212121;stroke-width:.10899319;stroke-linecap:round;stroke-linejoin:round;stroke-miterlimit:4;stroke-dasharray:none;stroke-dashoffset:0;stroke-opacity:1" transform="matrix(1.1375 0 0 1.29514 -4.819 -320.225)"/><path d="m41.454 254.46-.081 5.546-13.163 3.542-.163-5.127z" style="fill:#28ff98;fill-opacity:1;stroke:#212121;stroke-width:.13282083;stroke-linecap:round;stroke-linejoin:round;stroke-miterlimit:4;stroke-dasharray:none;stroke-dashoffset:0;stroke-opacity:1" transform="matrix(1.1375 0 0 1.29514 -4.819 -320.225)"/><path d="M10.333 257.359c-.06.438.137.897.513 1.19.376.295.92.416 1.41.315.341-.07.653-.242.871-.48.218-.239.342-.543.345-.848a1.302 1.302 0 0 0-.42-.95 1.695 1.695 0 0 0-1.054-.438 1.749 1.749 0 0 0-1.108.315c-.306.223-.51.55-.557.896z" style="fill:#ffbe40;fill-opacity:1;stroke:#212121;stroke-width:.10607294;stroke-linecap:round;stroke-linejoin:miter;stroke-miterlimit:4;stroke-dasharray:2.54575074,2.5457507399999999;stroke-dashoffset:0;stroke-opacity:1" transform="matrix(1.1375 0 0 1.29514 -4.819 -320.225)"/><path d="M37.95 275.65c-.06.438.137.897.513 1.191.376.294.92.415 1.41.315.341-.07.653-.242.87-.48.22-.24.343-.543.346-.849a1.302 1.302 0 0 0-.421-.95 1.695 1.695 0 0 0-1.053-.437 1.749 1.749 0 0 0-1.108.315c-.306.222-.51.55-.558.895z" style="fill:#ff8750;fill-opacity:1;stroke:#212121;stroke-width:.10607389;stroke-linecap:round;stroke-linejoin:miter;stroke-miterlimit:4;stroke-dasharray:1.27288655,1.27288655;stroke-dashoffset:0;stroke-opacity:1" transform="matrix(1.1375 0 0 1.29514 -4.819 -320.225)"/><path d="M9.642 255.83c-.551.126-1.102.252-1.37.48-.268.229-.252.56.026.895.278.335.84.688 2.076 1.381 1.236.693 3.158 1.733 4.292 2.386 1.134.654 1.48.921 1.691 1.262.212.34.293.777.002 1.155-.292.378-.953.71-1.292.875-.338.165-.354.165-.37.165" style="fill:none;stroke:#212121;stroke-width:.21951228;stroke-linecap:round;stroke-linejoin:miter;stroke-miterlimit:4;stroke-dasharray:5.26829465,.21951228;stroke-dashoffset:0;stroke-opacity:1" transform="matrix(1.1375 0 0 1.29514 -4.819 -320.225)"/><path d="M9.689 265.374c-.315.157-.63.315-.842.449-.213.133-.323.244-.364.424a.894.894 0 0 0 .143.67c.15.205.417.347 1.512.67 1.094.322 3.016.826 4.142 1.134 1.126.307 1.457.417 1.724.559.268.141.473.315.607.44.133.127.196.205.206.347a.964.964 0 0 1-.194.587c-.152.209-.43.42-.784.634-.355.212-.795.433-1.236.653M9.689 272.697c-.677.268-1.354.536-1.764.787-.41.252-.771.553-.85.83-.093.288.037.554.25.783.236.253.27.45 1.687.837 1.417.385 4.047.984 5.512 1.378 1.465.393 1.764.582 1.898.881a.819.819 0 0 1-.234.983c-.336.274-.976.411-1.617.549" style="fill:none;stroke:#212121;stroke-width:.21798638;stroke-linecap:round;stroke-linejoin:miter;stroke-miterlimit:4;stroke-dasharray:5.2316731,.21798638;stroke-dashoffset:0;stroke-opacity:1" transform="matrix(1.1375 0 0 1.29514 -4.819 -320.225)"/><path d="M6.251 271.686c-.06.438.138.897.514 1.191.376.294.92.416 1.41.315.34-.07.653-.242.87-.48.22-.24.343-.543.346-.849a1.301 1.301 0 0 0-.421-.95 1.695 1.695 0 0 0-1.053-.437 1.749 1.749 0 0 0-1.108.315c-.306.223-.51.55-.558.895z" style="fill:#28ff98;fill-opacity:1;stroke:#212121;stroke-width:.10899319;stroke-linecap:round;stroke-linejoin:miter;stroke-miterlimit:4;stroke-dasharray:.87194552,.87194552;stroke-dashoffset:0;stroke-opacity:1" transform="matrix(1.1375 0 0 1.29514 -4.819 -320.225)"/></svg>